<?xml version="1.0" encoding="UTF-8"?>
<!DOCTYPE svg PUBLIC "-//W3C//DTD SVG 1.1//EN" "http://www.w3.org/Graphics/SVG/1.1/DTD/svg11.dtd">
<!-- Creator: CorelDRAW 2021 (64-Bit) -->
<svg xmlns="http://www.w3.org/2000/svg" xml:space="preserve" width="0.182988in" height="0.148764in" version="1.1" style="shape-rendering:geometricPrecision; text-rendering:geometricPrecision; image-rendering:optimizeQuality; fill-rule:evenodd; clip-rule:evenodd"
viewBox="0 0 1.64 1.33"
 xmlns:xlink="http://www.w3.org/1999/xlink"
 xmlns:xodm="http://www.corel.com/coreldraw/odm/2003">
 <defs>
  <style type="text/css">
   <![CDATA[
    .fil0 {fill:white;fill-rule:nonzero}
   ]]>
  </style>
 </defs>
 <g id="Layer_x0020_1">
  <metadata id="CorelCorpID_0Corel-Layer"/>
  <path class="fil0" d="M1.64 0.16c-0.06,0.03 -0.13,0.04 -0.19,0.05 0.07,-0.04 0.12,-0.11 0.15,-0.19 -0.07,0.04 -0.14,0.07 -0.21,0.08 -0.05,-0.05 -0.12,-0.09 -0.19,-0.1 -0.07,-0.01 -0.15,0 -0.21,0.04 -0.07,0.03 -0.12,0.09 -0.15,0.16 -0.03,0.07 -0.04,0.14 -0.02,0.22 -0.13,-0.01 -0.26,-0.04 -0.38,-0.1 -0.12,-0.06 -0.22,-0.15 -0.31,-0.25 -0.03,0.05 -0.05,0.11 -0.05,0.17 -0,0.06 0.01,0.11 0.04,0.16 0.03,0.05 0.06,0.09 0.11,0.12 -0.05,-0 -0.11,-0.02 -0.15,-0.04l0 0c0,0.08 0.03,0.15 0.08,0.21 0.05,0.06 0.12,0.1 0.19,0.12 -0.05,0.01 -0.1,0.02 -0.15,0.01 0.02,0.07 0.06,0.13 0.12,0.17 0.06,0.04 0.12,0.07 0.19,0.07 -0.12,0.09 -0.27,0.14 -0.42,0.14 -0.03,0 -0.05,-0 -0.08,-0 0.15,0.1 0.33,0.15 0.52,0.15 0.62,0 0.96,-0.51 0.96,-0.96 0,-0.01 -0,-0.03 -0,-0.04 0.07,-0.05 0.12,-0.11 0.17,-0.17l0 -0z"/>
 </g>
</svg>
